<svg class="logo_color mb-8" version="1.0" xmlns="http://www.w3.org/2000/svg"
						height="25px" viewBox="0 0 417.000000 396.000000"
						preserveAspectRatio="xMidYMid meet">

	<g transform="translate(0.000000,396.000000) scale(0.100000,-0.100000)"
   fill="currentColor" stroke="none">
		<path fill="currentColor" d="M2060 3820 c-225 -18 -439 -74 -654 -170 -143 -64 -344 -204 -495
                                        -345 -82 -77 -301 -353 -301 -380 0 -7 -5 -17 -11 -20 -20 -13 -136 -253 -173
                                        -360 -34 -97 -76 -332 -76 -422 0 -18 -5 -53 -12 -77 -21 -80 13 -114 86 -87
                                        27 11 192 172 234 230 15 20 72 79 127 131 179 171 209 204 265 290 98 151
                                        101 160 74 258 -5 19 4 32 52 77 33 30 64 55 70 55 6 0 19 9 29 20 10 11 23
                                        20 29 20 6 0 23 8 36 18 64 45 158 54 224 22 38 -18 116 -81 227 -183 93 -86
                                        150 -238 156 -422 4 -104 2 -128 -16 -180 -12 -33 -27 -76 -32 -95 -6 -19 -15
                                        -39 -20 -44 -5 -6 -9 -18 -9 -28 0 -9 -9 -37 -19 -60 -45 -102 -63 -202 -39
                                        -226 34 -34 104 3 223 118 44 42 103 91 130 108 47 29 78 61 116 122 9 14 59
                                        72 111 128 53 56 103 116 113 134 9 18 29 56 45 83 42 75 80 156 80 170 0 7 7
                                        18 15 25 8 7 15 17 15 22 0 5 20 39 44 76 37 56 93 121 229 268 9 10 38 44 65
                                        75 146 174 200 234 230 257 39 30 40 41 5 74 -59 53 -299 173 -448 222 -60 20
                                        -119 41 -130 46 -11 5 -36 11 -55 14 -19 3 -62 10 -95 16 -123 21 -320 30
                                        -445 20z" />
		<path fill="currentColor" d="M3529 3163 c-6 -16 -29 -53 -52 -83 -54 -72 -343 -404 -396 -455 -22
                                        -21 -41 -44 -41 -49 0 -6 -40 -51 -90 -101 -85 -86 -90 -93 -101 -150 -15 -83
                                        -3 -236 24 -300 11 -27 34 -70 51 -94 17 -24 44 -64 59 -89 32 -51 103 -133
                                        142 -163 22 -18 27 -19 53 -5 31 16 98 85 214 222 40 47 99 116 130 152 31 37
                                        57 70 58 74 1 18 114 155 228 274 69 73 129 139 133 146 20 35 -110 314 -225
                                        485 -102 150 -164 195 -187 136z" />
		<path fill="currentColor" d="M1342 2560 c-27 -22 -54 -40 -60 -40 -10 0 -79 -75 -132 -145 -19
                                        -25 -64 -74 -100 -108 -36 -34 -105 -102 -155 -151 -49 -49 -107 -100 -127
                                        -113 -21 -13 -38 -28 -38 -35 0 -21 -204 -220 -283 -275 l-77 -55 0 -54 c0
                                        -68 56 -260 110 -379 15 -33 35 -76 44 -95 56 -122 164 -286 272 -410 91 -104
                                        279 -271 389 -345 140 -94 424 -218 555 -242 14 -2 34 -8 45 -13 11 -4 56 -14
                                        100 -20 44 -7 103 -15 130 -19 63 -10 286 -4 297 7 4 4 4 53 -2 107 -18 188
                                        -12 244 39 370 12 31 80 168 93 190 110 178 175 269 219 303 16 13 29 28 29
                                        34 0 6 31 43 69 83 90 95 96 121 45 202 -21 32 -48 69 -60 82 -13 13 -40 46
                                        -59 75 -20 28 -51 71 -70 96 -18 25 -34 49 -34 53 -1 5 -11 23 -23 40 -13 17
                                        -30 52 -39 77 -9 25 -24 63 -33 85 -8 22 -15 53 -16 68 0 30 -25 87 -38 87 -4
                                        0 -50 -44 -102 -98 -52 -53 -131 -122 -175 -152 -44 -29 -113 -77 -153 -104
                                        -74 -52 -258 -164 -345 -211 -87 -47 -203 -46 -251 2 -20 20 -26 36 -26 70 0
                                        48 38 168 67 211 10 15 26 52 36 82 71 232 97 365 97 491 0 134 -19 196 -77
                                        250 -58 53 -93 53 -161 -1z" />
		<path fill="currentColor" d="M3864 2132 c-136 -135 -204 -212 -204 -230 0 -4 -12 -19 -26 -33 -14
                                        -13 -51 -59 -82 -102 -32 -43 -71 -97 -89 -120 -17 -23 -53 -72 -79 -110 -26
                                        -37 -51 -70 -55 -73 -21 -13 -4 -49 66 -143 41 -55 75 -105 75 -110 0 -6 11
                                        -34 24 -63 29 -66 40 -99 66 -213 17 -74 19 -101 12 -150 -10 -60 -7 -85 9
                                        -85 15 0 199 243 199 263 0 2 23 43 50 91 28 48 50 92 50 97 0 6 7 23 15 37
                                        18 34 69 173 85 232 6 25 15 59 20 75 5 17 16 80 25 140 9 61 20 124 24 141 8
                                        32 -2 360 -14 431 -13 77 -21 74 -171 -75z" />
		<path fill="currentColor" d="M2973 1063 c-44 -53 -105 -142 -143 -208 -14 -24 -35 -54 -47 -67
                                        -13 -14 -23 -28 -23 -33 0 -4 -21 -40 -47 -79 -26 -39 -52 -78 -58 -87 -5 -9
                                        -19 -29 -29 -45 -11 -16 -30 -45 -43 -65 -12 -19 -23 -43 -23 -52 0 -9 -6 -31
                                        -14 -49 -45 -106 -45 -172 2 -209 24 -19 36 -21 100 -16 41 3 84 12 97 21 13
                                        9 31 16 39 16 45 0 275 202 335 295 24 38 32 51 58 100 43 79 48 185 14 295
                                        -47 149 -103 228 -163 230 -9 0 -34 -21 -55 -47z" />
	</g>
</svg>